<?xml version="1.0" standalone="no"?><!-- Generator: Gravit.io --><svg xmlns="http://www.w3.org/2000/svg" xmlns:xlink="http://www.w3.org/1999/xlink" style="isolation:isolate" viewBox="162.2 22.031 35.6 34.231" width="35.6" height="34.231"><g><path d=" M 197.8 39.146 C 197.8 48.599 189.831 56.262 180 56.262 C 170.169 56.262 162.2 48.599 162.2 39.146 C 162.2 29.693 170.169 22.031 180 22.031 C 189.831 22.031 197.8 29.693 197.8 39.146 Z " fill="rgb(48,58,89)"/><g><path d=" M 189.273 28.623 C 189.273 30.86 187.387 32.673 185.061 32.673 C 182.735 32.673 180.849 30.86 180.849 28.623 C 180.849 26.387 182.735 24.574 185.061 24.574 C 187.387 24.574 189.273 26.387 189.273 28.623 L 189.273 28.623 Z " fill="rgb(255,207,17)"/><path d=" M 192.323 31.666 C 192.323 33.903 190.437 35.716 188.111 35.716 C 185.784 35.716 183.899 33.903 183.899 31.666 C 183.899 29.429 185.784 27.616 188.111 27.616 C 190.437 27.616 192.323 29.429 192.323 31.666 L 192.323 31.666 Z " fill="rgb(255,207,17)"/><path d=" M 176.101 31.666 C 176.101 33.903 174.216 35.716 171.889 35.716 C 169.563 35.716 167.677 33.903 167.677 31.666 C 167.677 29.429 169.563 27.616 171.889 27.616 C 174.216 27.616 176.101 29.429 176.101 31.666 Z " fill="rgb(255,207,17)"/><path d=" M 179.151 28.623 C 179.151 30.86 177.265 32.673 174.939 32.673 C 172.613 32.673 170.727 30.86 170.727 28.623 C 170.727 26.387 172.613 24.574 174.939 24.574 C 177.265 24.574 179.151 26.387 179.151 28.623 Z " fill="rgb(255,207,17)"/><path d=" M 184.212 26.081 C 184.212 28.317 182.326 30.13 180 30.13 C 177.674 30.13 175.788 28.317 175.788 26.081 C 175.788 23.844 177.674 22.031 180 22.031 C 182.326 22.031 184.212 23.844 184.212 26.081 L 184.212 26.081 Z " fill="rgb(255,207,17)"/></g><path d=" M 173.766 33.446 C 173.766 35.213 172.276 36.646 170.438 36.646 C 168.6 36.646 167.11 35.213 167.11 33.446 C 167.11 31.678 168.6 30.246 170.438 30.246 C 172.276 30.246 173.766 31.678 173.766 33.446 Z " fill="rgb(255,232,84)"/><path d=" M 178.361 32.595 C 178.361 34.832 176.475 36.646 174.149 36.646 C 171.822 36.646 169.937 34.832 169.937 32.595 C 169.937 30.359 171.822 28.546 174.149 28.546 C 176.475 28.546 178.361 30.359 178.361 32.595 Z " fill="rgb(255,232,84)"/><path d=" M 186.115 31.288 C 186.115 34.247 183.621 36.646 180.543 36.646 C 177.466 36.646 174.972 34.247 174.972 31.288 C 174.972 28.329 177.466 25.931 180.543 25.931 C 183.621 25.931 186.115 28.329 186.115 31.288 L 186.115 31.288 Z " fill="rgb(255,232,84)"/><path d=" M 191.15 32.595 C 191.15 34.832 189.264 36.646 186.938 36.646 C 184.612 36.646 182.726 34.832 182.726 32.595 C 182.726 30.359 184.612 28.546 186.938 28.546 C 189.264 28.546 191.15 30.359 191.15 32.595 Z " fill="rgb(255,232,84)"/><path d=" M 193.977 33.446 C 193.977 35.213 192.487 36.646 190.649 36.646 C 188.811 36.646 187.321 35.213 187.321 33.446 C 187.321 31.678 188.811 30.246 190.649 30.246 C 192.487 30.246 193.977 31.678 193.977 33.446 L 193.977 33.446 Z " fill="rgb(255,232,84)"/><path d=" M 175.16 34.05 C 175.16 35.366 174.05 36.434 172.68 36.434 C 171.311 36.434 170.201 35.366 170.201 34.05 C 170.201 32.733 171.311 31.666 172.68 31.666 C 174.05 31.666 175.16 32.733 175.16 34.05 Z " fill="rgb(255,207,17)"/><path d=" M 185.893 33.446 C 185.893 34.762 184.782 35.83 183.413 35.83 C 182.044 35.83 180.934 34.762 180.934 33.446 C 180.934 32.129 182.044 31.062 183.413 31.062 C 184.782 31.062 185.893 32.129 185.893 33.446 L 185.893 33.446 Z " fill="rgb(255,207,17)"/><path d=" M 191.752 34.471 C 191.752 35.787 190.642 36.855 189.273 36.855 C 187.904 36.855 186.794 35.787 186.794 34.471 C 186.794 33.154 187.904 32.087 189.273 32.087 C 190.642 32.087 191.752 33.154 191.752 34.471 L 191.752 34.471 Z " fill="rgb(255,207,17)"/><path d=" M 179.491 32.674 C 179.491 34.324 178.1 35.662 176.384 35.662 C 174.667 35.662 173.276 34.324 173.276 32.674 C 173.276 31.023 174.667 29.685 176.384 29.685 C 178.1 29.685 179.491 31.023 179.491 32.674 Z " fill="rgb(255,207,17)"/><path d=" M 189.629 32.674 C 189.629 34.324 188.237 35.662 186.521 35.662 C 184.804 35.662 183.413 34.324 183.413 32.674 C 183.413 31.023 184.804 29.685 186.521 29.685 C 188.237 29.685 189.629 31.023 189.629 32.674 Z " fill="rgb(255,207,17)"/><path d=" M 168.621 52.307 C 171.706 54.776 175.672 56.262 180 56.262 C 184.328 56.262 188.294 54.776 191.379 52.307 L 193.77 35.723 L 166.23 35.723 L 168.621 52.307 Z " fill="rgb(255,51,69)"/><path d=" M 166.615 38.397 L 193.385 38.397 L 193.77 35.723 L 166.23 35.723 L 166.615 38.397 Z " fill="rgb(227,40,40)"/><path d=" M 182.594 56.08 C 183.965 55.888 185.286 55.545 186.538 55.07 L 188.198 35.723 L 183.297 35.723 L 182.594 56.08 Z " fill="rgb(235,240,243)"/><path d=" M 176.703 35.723 L 171.802 35.723 L 173.463 55.07 C 174.714 55.545 176.035 55.888 177.406 56.08 L 176.703 35.723 Z " fill="rgb(235,240,243)"/><path d=" M 183.204 38.397 L 187.969 38.397 L 188.198 35.723 L 183.297 35.723 L 183.204 38.397 Z " fill="rgb(199,217,255)"/><path d=" M 176.703 35.723 L 171.802 35.723 L 172.031 38.397 L 176.796 38.397 L 176.703 35.723 Z " fill="rgb(199,217,255)"/><path d=" M 194.297 37.394 L 165.703 37.394 C 165.325 37.394 165.02 37.1 165.02 36.737 L 165.02 34.708 C 165.02 34.346 165.325 34.051 165.703 34.051 L 194.297 34.051 C 194.675 34.051 194.98 34.346 194.98 34.708 L 194.98 36.737 C 194.98 37.1 194.675 37.394 194.297 37.394 Z " fill="rgb(255,51,69)"/></g></svg>