<svg width="28" height="28" viewBox="0 0 28 28" fill="none" xmlns="http://www.w3.org/2000/svg">
<g clip-path="url(#clip0)">
<g filter="url(#filter0_d)">
<path d="M13.4566 5.18466L17.7013 0.939936C18.1646 0.476642 18.9152 0.478423 19.3764 0.943794L23.6018 5.20781C24.063 5.67318 24.0613 6.42704 23.598 6.89033L19.3532 11.1351C18.89 11.5984 18.1393 11.5966 17.6781 11.1312L13.453 6.86718C12.9918 6.40181 12.9933 5.64796 13.4566 5.18466Z" fill="#FF5722"/>
</g>
<g filter="url(#filter1_d)">
<path d="M16.9166 8.64437L21.1613 4.39995C21.6246 3.93665 22.3752 3.93814 22.8364 4.4038L27.0615 8.66752C27.5228 9.13289 27.521 9.88704 27.0577 10.3503L22.8132 14.5951C22.35 15.0584 21.5994 15.0566 21.1382 14.5912L16.9127 10.3272C16.4515 9.86181 16.4533 9.10767 16.9166 8.64437Z" fill="#FFC107"/>
</g>
<g filter="url(#filter2_d)">
<path d="M13.4061 4.40085L23.5991 14.5939C24.0624 15.0572 24.0624 15.8093 23.5991 16.2725L13.4061 26.4656C12.9428 26.9289 12.1907 26.9289 11.7274 26.4656L1.5344 16.2725C1.07111 15.8093 1.07111 15.0572 1.5344 14.5939L11.7274 4.40085C12.1907 3.93755 12.9428 3.93755 13.4061 4.40085Z" fill="white"/>
</g>
</g>
<defs>
<filter id="filter0_d" x="12.1081" y="-0.406387" width="12.8385" height="12.8878" filterUnits="userSpaceOnUse" color-interpolation-filters="sRGB">
<feFlood flood-opacity="0" result="BackgroundImageFix"/>
<feColorMatrix in="SourceAlpha" type="matrix" values="0 0 0 0 0 0 0 0 0 0 0 0 0 0 0 0 0 0 127 0"/>
<feOffset/>
<feGaussianBlur stdDeviation="0.5"/>
<feColorMatrix type="matrix" values="0 0 0 0 0 0 0 0 0 0 0 0 0 0 0 0 0 0 0.75 0"/>
<feBlend mode="normal" in2="BackgroundImageFix" result="effect1_dropShadow"/>
<feBlend mode="normal" in="SourceGraphic" in2="effect1_dropShadow" result="shape"/>
</filter>
<filter id="filter1_d" x="15.568" y="3.05351" width="12.8384" height="12.8879" filterUnits="userSpaceOnUse" color-interpolation-filters="sRGB">
<feFlood flood-opacity="0" result="BackgroundImageFix"/>
<feColorMatrix in="SourceAlpha" type="matrix" values="0 0 0 0 0 0 0 0 0 0 0 0 0 0 0 0 0 0 127 0"/>
<feOffset/>
<feGaussianBlur stdDeviation="0.5"/>
<feColorMatrix type="matrix" values="0 0 0 0 0 0 0 0 0 0 0 0 0 0 0 0 0 0 0.75 0"/>
<feBlend mode="normal" in2="BackgroundImageFix" result="effect1_dropShadow"/>
<feBlend mode="normal" in="SourceGraphic" in2="effect1_dropShadow" result="shape"/>
</filter>
<filter id="filter2_d" x="-0.813066" y="2.05338" width="26.7597" height="26.7597" filterUnits="userSpaceOnUse" color-interpolation-filters="sRGB">
<feFlood flood-opacity="0" result="BackgroundImageFix"/>
<feColorMatrix in="SourceAlpha" type="matrix" values="0 0 0 0 0 0 0 0 0 0 0 0 0 0 0 0 0 0 127 0"/>
<feOffset/>
<feGaussianBlur stdDeviation="1"/>
<feColorMatrix type="matrix" values="0 0 0 0 0 0 0 0 0 0 0 0 0 0 0 0 0 0 0.75 0"/>
<feBlend mode="normal" in2="BackgroundImageFix" result="effect1_dropShadow"/>
<feBlend mode="normal" in="SourceGraphic" in2="effect1_dropShadow" result="shape"/>
</filter>
<clipPath id="clip0">
<rect width="28" height="28" fill="white"/>
</clipPath>
</defs>
</svg>
