<svg width="15" height="22" viewBox="0 0 15 22" fill="none" xmlns="http://www.w3.org/2000/svg">
<path fill-rule="evenodd" clip-rule="evenodd" d="M7.5 9.05512C10.0005 9.05512 12.0276 7.02806 12.0276 4.52756C12.0276 2.02706 10.0005 0 7.5 0C4.9995 0 2.97244 2.02706 2.97244 4.52756C2.97244 7.02806 4.9995 9.05512 7.5 9.05512ZM0 17.5551C0 18.0438 0.0467358 18.5215 0.135977 18.9841C2.2759 20.3081 4.7987 21.0723 7.49999 21.0723C10.2013 21.0723 12.7241 20.3081 14.864 18.9841C14.9533 18.5215 15 18.0438 15 17.5551C15 13.413 11.6421 10.0551 7.5 10.0551C3.35786 10.0551 0 13.413 0 17.5551Z" fill="white"/>
</svg>
