<?xml version="1.0" standalone="no"?><!-- Generator: Gravit.io --><svg xmlns="http://www.w3.org/2000/svg" xmlns:xlink="http://www.w3.org/1999/xlink" style="isolation:isolate" viewBox="19.3 22.062 35.6 34.2" width="35.6" height="34.2"><g><g><path d=" M 20.342 33.424 C 21.938 29.124 25.181 25.677 29.475 23.72 C 33.768 21.763 38.598 21.53 43.074 23.063 C 47.55 24.596 51.137 27.712 53.174 31.837 C 55.21 35.962 55.453 40.603 53.858 44.903 C 53.723 45.265 53.309 45.454 52.932 45.325 C 52.556 45.196 52.359 44.798 52.494 44.436 C 53.959 40.486 53.736 36.223 51.865 32.434 C 49.994 28.644 46.699 25.782 42.588 24.374 C 38.476 22.965 34.039 23.18 30.095 24.977 C 26.151 26.775 23.172 29.941 21.706 33.891 C 20.241 37.842 20.464 42.104 22.335 45.894 C 24.206 49.683 27.501 52.546 31.612 53.954 C 36.221 55.532 41.277 55.055 45.483 52.643 C 45.826 52.446 46.271 52.554 46.475 52.884 C 46.68 53.214 46.568 53.641 46.225 53.838 C 43.424 55.444 40.278 56.262 37.108 56.262 C 35.096 56.262 33.074 55.932 31.126 55.265 C 26.65 53.731 23.063 50.615 21.026 46.49 C 18.99 42.365 18.747 37.725 20.342 33.424 Z " fill="rgb(0,0,0)"/><path d=" M 29.135 39.164 C 29.135 38.78 29.459 38.468 29.859 38.468 L 47.892 38.468 C 48.292 38.468 48.616 38.78 48.616 39.164 C 48.616 39.548 48.292 39.859 47.892 39.859 L 29.859 39.859 C 29.459 39.859 29.135 39.548 29.135 39.164 Z " fill="rgb(0,0,0)"/><path d=" M 34.905 46.44 C 35.188 46.712 35.188 47.152 34.905 47.424 C 34.764 47.56 34.579 47.628 34.393 47.628 C 34.208 47.628 34.023 47.56 33.881 47.424 L 25.796 39.656 C 25.513 39.384 25.513 38.943 25.796 38.672 L 33.881 30.903 C 34.164 30.632 34.623 30.632 34.905 30.903 C 35.188 31.175 35.188 31.615 34.905 31.887 L 27.332 39.164 L 34.905 46.44 Z " fill="rgb(0,0,0)"/></g></g></svg>