<svg width="26" height="16" viewBox="0 0 26 16" fill="none" xmlns="http://www.w3.org/2000/svg">
<rect x="1.12759" y="6.53641" width="23.8977" height="2.52719" rx="1.26359" fill="#9E9E9E"/>
<path d="M1.46829 8.69348C0.97483 8.20002 0.97483 7.39996 1.46829 6.90649L7.02594 1.34885C7.5194 0.855386 8.31946 0.855385 8.81293 1.34885C9.30639 1.84231 9.30639 2.64238 8.81293 3.13584L3.25528 8.69348C2.76182 9.18695 1.96176 9.18695 1.46829 8.69348Z" fill="#9E9E9E"/>
<path d="M1.46823 6.90653C1.96169 6.41306 2.76176 6.41306 3.25522 6.90653L8.81286 12.4642C9.30633 12.9576 9.30633 13.7577 8.81286 14.2512C8.3194 14.7446 7.51934 14.7446 7.02587 14.2512L1.46823 8.69352C0.974767 8.20005 0.974766 7.39999 1.46823 6.90653Z" fill="#9E9E9E"/>
</svg>
