<svg width="26" height="15" viewBox="0 0 26 15" fill="none" xmlns="http://www.w3.org/2000/svg">
<rect x="1.12759" y="6.39191" width="23.8977" height="2.52719" rx="1.26359" fill="black"/>
<path d="M1.46829 8.54898C0.97483 8.05552 0.97483 7.25546 1.46829 6.76199L7.02594 1.20435C7.5194 0.710885 8.31946 0.710885 8.81293 1.20435C9.30639 1.69781 9.30639 2.49787 8.81293 2.99134L3.25528 8.54898C2.76182 9.04245 1.96176 9.04245 1.46829 8.54898Z" fill="black"/>
<path d="M1.46823 6.76203C1.96169 6.26856 2.76176 6.26856 3.25522 6.76203L8.81286 12.3197C9.30633 12.8131 9.30633 13.6132 8.81286 14.1067C8.3194 14.6001 7.51934 14.6001 7.02587 14.1067L1.46823 8.54902C0.974767 8.05555 0.974766 7.25549 1.46823 6.76203Z" fill="black"/>
</svg>
