<?xml version="1.0" standalone="no"?><!-- Generator: Gravit.io --><svg xmlns="http://www.w3.org/2000/svg" xmlns:xlink="http://www.w3.org/1999/xlink" style="isolation:isolate" viewBox="305 22.031 35.6 34.2" width="35.6" height="34.2"><g><path d=" M 335.389 27.034 C 328.448 20.363 317.154 20.363 310.213 27.034 C 307.778 29.374 306.112 32.314 305.395 35.536 C 304.698 38.674 304.926 41.925 306.056 44.937 C 306.192 45.299 306.607 45.486 306.983 45.356 C 307.36 45.225 307.555 44.826 307.419 44.465 C 306.381 41.697 306.171 38.71 306.812 35.827 C 307.47 32.868 309 30.168 311.238 28.018 C 317.614 21.891 327.988 21.891 334.364 28.018 C 337.401 30.936 339.1 34.815 339.15 38.94 C 339.2 43.058 337.603 46.968 334.654 49.95 C 334.619 49.985 334.585 50.02 334.55 50.056 C 334.489 50.119 334.428 50.182 334.364 50.243 C 327.988 56.37 317.614 56.37 311.238 50.243 C 311.204 50.21 311.171 50.177 311.138 50.144 C 311.136 50.08 311.135 50.016 311.135 49.954 C 311.135 49.814 311.137 49.674 311.143 49.535 C 311.145 49.488 311.148 49.442 311.151 49.396 C 311.155 49.303 311.16 49.211 311.167 49.119 C 311.171 49.064 311.177 49.01 311.182 48.955 C 311.19 48.872 311.197 48.789 311.206 48.707 C 311.213 48.648 311.222 48.59 311.229 48.532 C 311.24 48.454 311.249 48.376 311.261 48.298 C 311.271 48.238 311.282 48.179 311.292 48.12 C 311.305 48.044 311.317 47.968 311.332 47.893 C 311.343 47.833 311.356 47.774 311.369 47.714 C 311.385 47.64 311.4 47.566 311.417 47.492 C 311.431 47.432 311.446 47.373 311.461 47.314 C 311.479 47.241 311.497 47.169 311.517 47.097 C 311.533 47.037 311.551 46.978 311.568 46.918 C 311.589 46.847 311.609 46.776 311.631 46.706 C 311.65 46.647 311.669 46.588 311.689 46.529 C 311.712 46.459 311.735 46.39 311.76 46.32 C 311.781 46.262 311.802 46.204 311.824 46.146 C 311.85 46.077 311.876 46.009 311.903 45.94 C 311.926 45.883 311.95 45.826 311.973 45.768 C 312.002 45.701 312.03 45.633 312.059 45.567 C 312.085 45.51 312.11 45.453 312.136 45.397 C 312.167 45.331 312.198 45.265 312.23 45.199 C 312.257 45.143 312.285 45.088 312.313 45.032 C 312.346 44.967 312.379 44.902 312.414 44.838 C 312.443 44.783 312.472 44.729 312.502 44.675 C 312.538 44.611 312.574 44.547 312.611 44.484 C 312.642 44.43 312.673 44.377 312.705 44.324 C 312.743 44.262 312.782 44.199 312.821 44.137 C 312.854 44.085 312.887 44.033 312.921 43.981 C 312.961 43.919 313.002 43.858 313.044 43.798 C 313.079 43.747 313.114 43.696 313.149 43.646 C 313.192 43.585 313.235 43.526 313.279 43.466 C 313.316 43.417 313.353 43.367 313.39 43.318 C 313.435 43.259 313.481 43.201 313.527 43.143 C 313.566 43.095 313.604 43.047 313.643 42.999 C 313.69 42.942 313.739 42.885 313.788 42.828 C 313.827 42.781 313.867 42.735 313.908 42.689 C 313.958 42.633 314.009 42.577 314.06 42.522 C 314.101 42.477 314.142 42.432 314.184 42.388 C 314.237 42.333 314.29 42.279 314.344 42.225 C 314.387 42.182 314.429 42.139 314.472 42.096 C 314.527 42.042 314.584 41.99 314.64 41.937 C 314.684 41.896 314.727 41.854 314.772 41.814 C 314.83 41.761 314.889 41.71 314.947 41.659 C 314.992 41.62 315.037 41.58 315.082 41.542 C 315.143 41.49 315.205 41.44 315.267 41.39 C 315.313 41.353 315.358 41.316 315.404 41.28 C 315.468 41.229 315.533 41.181 315.599 41.131 C 315.644 41.097 315.689 41.062 315.735 41.028 C 315.804 40.978 315.875 40.93 315.945 40.881 C 315.989 40.85 316.033 40.818 316.078 40.788 C 316.155 40.736 316.235 40.685 316.314 40.635 C 316.353 40.61 316.391 40.584 316.43 40.559 C 316.533 40.495 316.638 40.432 316.744 40.371 C 316.76 40.361 316.776 40.351 316.793 40.342 C 316.915 40.271 317.039 40.203 317.164 40.137 C 317.207 40.114 317.251 40.093 317.295 40.071 C 317.378 40.028 317.461 39.985 317.545 39.944 C 317.6 39.918 317.655 39.893 317.71 39.868 C 317.779 39.836 317.848 39.803 317.918 39.772 C 319.231 40.978 320.983 41.66 322.801 41.66 C 324.619 41.66 326.371 40.978 327.685 39.772 C 330.248 40.912 332.346 42.958 333.485 45.446 C 333.646 45.798 334.074 45.958 334.44 45.803 C 334.806 45.648 334.973 45.237 334.812 44.885 C 333.566 42.164 331.396 39.989 328.651 38.676 C 329.447 37.553 329.878 36.227 329.878 34.859 C 329.878 31.109 326.703 28.058 322.801 28.058 C 322.401 28.058 322.076 28.369 322.076 28.754 C 322.076 29.138 322.401 29.45 322.801 29.45 C 325.905 29.45 328.429 31.877 328.429 34.859 C 328.429 36.193 327.914 37.477 326.977 38.475 C 326.977 38.475 326.977 38.475 326.977 38.475 C 325.908 39.614 324.386 40.268 322.801 40.268 C 321.216 40.268 319.694 39.614 318.625 38.475 C 318.625 38.475 318.625 38.475 318.624 38.475 C 317.688 37.476 317.172 36.192 317.172 34.859 C 317.172 33.403 317.765 32.038 318.842 31.014 C 319.127 30.743 319.129 30.303 318.848 30.029 C 318.566 29.756 318.108 29.754 317.823 30.024 C 316.469 31.311 315.723 33.028 315.723 34.859 C 315.723 36.226 316.153 37.551 316.949 38.673 C 316.941 38.677 316.935 38.68 316.928 38.684 C 316.871 38.711 316.816 38.74 316.76 38.767 C 316.674 38.81 316.588 38.853 316.503 38.897 C 316.443 38.928 316.385 38.961 316.325 38.993 C 316.246 39.037 316.167 39.079 316.089 39.124 C 316.029 39.158 315.969 39.194 315.909 39.23 C 315.834 39.274 315.759 39.318 315.686 39.364 C 315.625 39.401 315.566 39.439 315.507 39.477 C 315.435 39.523 315.364 39.569 315.293 39.616 C 315.234 39.656 315.175 39.696 315.117 39.737 C 315.048 39.785 314.979 39.833 314.912 39.881 C 314.853 39.923 314.796 39.966 314.739 40.009 C 314.672 40.058 314.607 40.108 314.541 40.159 C 314.485 40.203 314.429 40.247 314.373 40.292 C 314.309 40.343 314.245 40.395 314.182 40.448 C 314.127 40.494 314.073 40.54 314.019 40.586 C 313.957 40.64 313.896 40.694 313.835 40.749 C 313.782 40.796 313.73 40.844 313.678 40.892 C 313.617 40.948 313.558 41.004 313.499 41.061 C 313.448 41.11 313.398 41.158 313.348 41.208 C 313.29 41.266 313.232 41.326 313.175 41.385 C 313.127 41.435 313.079 41.484 313.032 41.535 C 312.974 41.596 312.919 41.658 312.863 41.721 C 312.818 41.771 312.772 41.821 312.728 41.871 C 312.671 41.937 312.616 42.003 312.561 42.07 C 312.519 42.119 312.477 42.168 312.437 42.218 C 312.379 42.29 312.322 42.363 312.266 42.436 C 312.23 42.482 312.194 42.527 312.159 42.574 C 312.088 42.669 312.018 42.765 311.95 42.862 C 311.932 42.888 311.913 42.913 311.895 42.938 C 311.81 43.061 311.727 43.185 311.646 43.31 C 311.618 43.353 311.592 43.398 311.564 43.441 C 311.512 43.525 311.46 43.608 311.409 43.693 C 311.378 43.745 311.348 43.799 311.318 43.852 C 311.274 43.929 311.229 44.005 311.187 44.083 C 311.156 44.14 311.126 44.198 311.095 44.256 C 311.056 44.331 311.016 44.406 310.979 44.481 C 310.949 44.541 310.92 44.602 310.891 44.663 C 310.855 44.737 310.819 44.812 310.785 44.887 C 310.757 44.949 310.73 45.012 310.702 45.074 C 310.67 45.149 310.637 45.225 310.606 45.3 C 310.58 45.364 310.555 45.428 310.53 45.492 C 310.5 45.568 310.471 45.644 310.442 45.72 C 310.418 45.785 310.395 45.85 310.372 45.915 C 310.345 45.992 310.319 46.069 310.294 46.147 C 310.272 46.212 310.251 46.278 310.231 46.344 C 310.207 46.423 310.183 46.501 310.161 46.58 C 310.142 46.646 310.123 46.712 310.105 46.779 C 310.084 46.859 310.063 46.939 310.044 47.019 C 310.027 47.086 310.011 47.152 309.995 47.219 C 309.977 47.3 309.959 47.382 309.942 47.464 C 309.929 47.531 309.914 47.597 309.902 47.665 C 309.886 47.748 309.872 47.832 309.857 47.916 C 309.846 47.982 309.835 48.048 309.825 48.114 C 309.811 48.201 309.8 48.288 309.789 48.375 C 309.781 48.439 309.771 48.504 309.764 48.569 C 309.754 48.66 309.746 48.752 309.737 48.843 C 309.732 48.904 309.725 48.965 309.721 49.027 C 309.713 49.129 309.708 49.232 309.703 49.335 C 309.7 49.387 309.696 49.437 309.694 49.489 C 309.688 49.643 309.685 49.798 309.685 49.954 C 309.685 50.122 309.691 50.281 309.698 50.457 C 309.7 50.497 309.706 50.537 309.714 50.575 C 309.715 50.578 309.715 50.581 309.716 50.584 C 309.725 50.622 309.738 50.659 309.753 50.694 C 309.754 50.698 309.755 50.701 309.757 50.705 C 309.773 50.739 309.791 50.773 309.812 50.804 C 309.815 50.808 309.817 50.812 309.82 50.816 C 309.842 50.847 309.866 50.876 309.892 50.903 C 309.894 50.905 309.895 50.908 309.897 50.91 L 309.993 51.007 C 310.065 51.082 310.137 51.156 310.212 51.228 C 313.683 54.563 318.242 56.231 322.8 56.231 C 327.359 56.231 331.918 54.563 335.388 51.228 C 335.464 51.156 335.536 51.082 335.608 51.007 L 335.704 50.91 C 338.915 47.664 340.653 43.407 340.599 38.925 C 340.545 34.433 338.694 30.21 335.389 27.034 Z " fill="rgb(0,0,0)"/></g></svg>